<svg width="30" height="31" viewBox="0 0 30 31" fill="none" xmlns="http://www.w3.org/2000/svg">
<g clip-path="url(#clip0_118_2238)">
<path d="M15 2.77771C19.0078 2.77771 19.4824 2.79529 21.0586 2.8656C22.5234 2.93005 23.3145 3.17615 23.8418 3.38123C24.5391 3.65076 25.043 3.97888 25.5645 4.50037C26.0918 5.02771 26.4141 5.52576 26.6836 6.22302C26.8887 6.75037 27.1348 7.54724 27.1992 9.00623C27.2695 10.5883 27.2871 11.0629 27.2871 15.0648C27.2871 19.0726 27.2695 19.5472 27.1992 21.1234C27.1348 22.5883 26.8887 23.3793 26.6836 23.9066C26.4141 24.6039 26.0859 25.1078 25.5645 25.6293C25.0371 26.1566 24.5391 26.4789 23.8418 26.7484C23.3145 26.9535 22.5176 27.1996 21.0586 27.264C19.4766 27.3344 19.002 27.3519 15 27.3519C10.9922 27.3519 10.5176 27.3344 8.94141 27.264C7.47656 27.1996 6.68555 26.9535 6.1582 26.7484C5.46094 26.4789 4.95703 26.1508 4.43555 25.6293C3.9082 25.1019 3.58594 24.6039 3.31641 23.9066C3.11133 23.3793 2.86523 22.5824 2.80078 21.1234C2.73047 19.5414 2.71289 19.0668 2.71289 15.0648C2.71289 11.057 2.73047 10.5824 2.80078 9.00623C2.86523 7.54138 3.11133 6.75037 3.31641 6.22302C3.58594 5.52576 3.91406 5.02185 4.43555 4.50037C4.96289 3.97302 5.46094 3.65076 6.1582 3.38123C6.68555 3.17615 7.48242 2.93005 8.94141 2.8656C10.5176 2.79529 10.9922 2.77771 15 2.77771ZM15 0.0765381C10.9277 0.0765381 10.418 0.0941162 8.81836 0.164429C7.22461 0.234741 6.12891 0.492554 5.17969 0.861694C4.18945 1.24841 3.35156 1.75818 2.51953 2.59607C1.68164 3.4281 1.17188 4.26599 0.785156 5.25037C0.416016 6.20544 0.158203 7.29529 0.0878906 8.88904C0.0175781 10.4945 0 11.0043 0 15.0765C0 19.1488 0.0175781 19.6586 0.0878906 21.2582C0.158203 22.8519 0.416016 23.9476 0.785156 24.8969C1.17188 25.8871 1.68164 26.725 2.51953 27.557C3.35156 28.389 4.18945 28.9047 5.17383 29.2855C6.12891 29.6547 7.21875 29.9125 8.8125 29.9828C10.4121 30.0531 10.9219 30.0707 14.9941 30.0707C19.0664 30.0707 19.5762 30.0531 21.1758 29.9828C22.7695 29.9125 23.8652 29.6547 24.8145 29.2855C25.7988 28.9047 26.6367 28.389 27.4688 27.557C28.3008 26.725 28.8164 25.8871 29.1973 24.9027C29.5664 23.9476 29.8242 22.8578 29.8945 21.264C29.9648 19.6644 29.9824 19.1547 29.9824 15.0824C29.9824 11.0101 29.9648 10.5004 29.8945 8.90076C29.8242 7.30701 29.5664 6.2113 29.1973 5.26208C28.8281 4.26599 28.3184 3.4281 27.4805 2.59607C26.6484 1.76404 25.8105 1.24841 24.8262 0.867554C23.8711 0.498413 22.7813 0.240601 21.1875 0.170288C19.582 0.0941162 19.0723 0.0765381 15 0.0765381Z" fill="#FF5700"/>
<path d="M15 7.37146C10.7461 7.37146 7.29492 10.8226 7.29492 15.0765C7.29492 19.3304 10.7461 22.7816 15 22.7816C19.2539 22.7816 22.7051 19.3304 22.7051 15.0765C22.7051 10.8226 19.2539 7.37146 15 7.37146ZM15 20.0746C12.2402 20.0746 10.002 17.8363 10.002 15.0765C10.002 12.3168 12.2402 10.0785 15 10.0785C17.7598 10.0785 19.998 12.3168 19.998 15.0765C19.998 17.8363 17.7598 20.0746 15 20.0746Z" fill="#FF5700"/>
<path d="M24.8086 7.06671C24.8086 8.06281 24 8.86554 23.0098 8.86554C22.0137 8.86554 21.2109 8.05695 21.2109 7.06671C21.2109 6.07062 22.0195 5.26788 23.0098 5.26788C24 5.26788 24.8086 6.07648 24.8086 7.06671Z" fill="#FF5700"/>
</g>
<defs>
<clipPath id="clip0_118_2238">
<rect width="30" height="30" fill="white" transform="translate(0 0.0765381)"/>
</clipPath>
</defs>
</svg>
