<svg width="31" height="31" viewBox="0 0 31 31" fill="none" xmlns="http://www.w3.org/2000/svg">
<path d="M26.8196 0.13643C27.7037 0.140953 28.5497 0.496476 29.1716 1.12479C29.7935 1.7531 30.1404 2.60273 30.1359 3.48677L30.0165 26.8198C30.012 27.7038 29.6564 28.5499 29.0281 29.1718C28.3998 29.7937 27.5502 30.1406 26.6662 30.136L3.33313 30.0167C2.44908 30.0121 1.60304 29.6566 0.981129 29.0283C0.359214 28.4 0.012367 27.5504 0.0168899 26.6663L0.136267 3.33329C0.140789 2.44925 0.496312 1.60321 1.12462 0.981293C1.75293 0.359378 2.60257 0.0125308 3.48661 0.0170538L26.8196 0.13643ZM25.8541 25.9652L25.8993 17.1319C25.9067 15.691 25.3414 14.3061 24.3276 13.2819C23.3139 12.2578 21.9349 11.6783 20.4939 11.6709C19.0772 11.6636 17.4228 12.5218 16.6162 13.8177L16.6256 11.9678L11.9757 11.944L11.9043 25.8938L16.5543 25.9176L16.5963 17.701C16.6029 16.4177 17.6416 15.373 18.9249 15.3796C19.5437 15.3827 20.1359 15.6316 20.5713 16.0714C21.0066 16.5112 21.2494 17.106 21.2462 17.7248L21.2042 25.9414L25.8541 25.9652ZM6.57249 9.29963C7.31509 9.30343 8.02878 9.01208 8.55656 8.48967C9.08434 7.96726 9.38298 7.25659 9.38678 6.51399C9.39471 4.96401 8.15121 3.69097 6.60123 3.68304C5.85421 3.67921 5.13627 3.9723 4.60535 4.49782C4.07443 5.02334 3.77401 5.73824 3.77019 6.48526C3.76226 8.03524 5.02251 9.2917 6.57249 9.29963ZM8.80437 25.8779L8.87574 11.9281L4.25914 11.9045L4.18777 25.8543L8.80437 25.8779Z" fill="#FF5700"/>
</svg>
