<svg width="222" height="41" viewBox="0 0 222 41" fill="none" xmlns="http://www.w3.org/2000/svg">
<path d="M45.52 8.76L45.072 22.68L45.456 31H40.976L41.36 23.224L41.296 21.528H32.688L32.656 22.68L33.04 31H28.56L28.944 23.224L28.56 9.56L33.104 8.76L32.784 18.136H41.2L40.976 9.56L45.52 8.76ZM48.9898 24.312C48.9898 21.5813 49.7258 19.2667 51.1978 17.368C52.6698 15.4693 54.3871 14.52 56.3498 14.52C58.3338 14.52 59.8698 15.16 60.9578 16.44C62.0671 17.72 62.6218 19.416 62.6218 21.528C62.6218 24.344 61.9071 26.6907 60.4778 28.568C59.0698 30.424 57.2884 31.352 55.1338 31.352C53.3631 31.352 51.8911 30.6907 50.7178 29.368C49.5658 28.024 48.9898 26.3387 48.9898 24.312ZM59.0378 23.192C59.0378 20.0987 57.9818 18.552 55.8698 18.552C53.6724 18.552 52.5738 20.0027 52.5738 22.904C52.5738 24.4187 52.8831 25.6027 53.5018 26.456C54.1204 27.3093 54.9311 27.736 55.9338 27.736C56.9578 27.736 57.7258 27.352 58.2378 26.584C58.7711 25.7947 59.0378 24.664 59.0378 23.192ZM51.2618 10.008C51.2618 9.41067 51.4858 8.87733 51.9338 8.408C52.3818 7.93867 52.9044 7.704 53.5018 7.704C54.0991 7.704 54.5578 7.87467 54.8778 8.216C55.1978 8.536 55.3578 9.02667 55.3578 9.688C55.3578 10.328 55.1338 10.8827 54.6858 11.352C54.2378 11.8213 53.7151 12.056 53.1178 12.056C52.5418 12.056 52.0831 11.864 51.7418 11.48C51.4218 11.096 51.2618 10.6053 51.2618 10.008ZM56.4458 10.008C56.4458 9.41067 56.6698 8.87733 57.1178 8.408C57.5658 7.93867 58.0991 7.704 58.7178 7.704C59.9338 7.704 60.5418 8.32267 60.5418 9.56C60.5418 10.2853 60.3178 10.8827 59.8698 11.352C59.4431 11.8213 58.9311 12.056 58.3338 12.056C57.7578 12.056 57.2991 11.864 56.9578 11.48C56.6164 11.096 56.4458 10.6053 56.4458 10.008ZM66.1553 31.32C65.2806 31.32 64.4059 31.224 63.5312 31.032L64.5553 27.192C65.2593 27.4267 65.9419 27.544 66.6033 27.544C67.9046 27.544 68.5553 26.4667 68.5553 24.312L68.1073 9.56L72.6513 8.76L72.2033 23.192C72.2033 25.5173 71.6379 27.4587 70.5073 29.016C69.3766 30.552 67.9259 31.32 66.1553 31.32ZM77.7245 24.632C79.5378 26.4453 81.3512 27.352 83.1645 27.352C84.1032 27.352 84.8498 27.1387 85.4045 26.712C85.9805 26.264 86.2685 25.6987 86.2685 25.016C86.2685 24.312 85.9272 23.7253 85.2445 23.256C84.5618 22.7653 83.7298 22.3387 82.7485 21.976C81.7885 21.6133 80.8285 21.208 79.8685 20.76C78.9085 20.2907 78.0872 19.6293 77.4045 18.776C76.7218 17.9227 76.3805 16.888 76.3805 15.672C76.3805 13.752 77.1805 12.0987 78.7805 10.712C80.3805 9.304 82.2792 8.6 84.4765 8.6C85.4792 8.6 86.4498 8.70667 87.3885 8.92C88.3272 9.13333 89.2338 9.44267 90.1085 9.848L87.9325 14.52C87.3352 14.0507 86.5138 13.624 85.4685 13.24C84.4445 12.8347 83.5378 12.632 82.7485 12.632C81.9805 12.632 81.3512 12.824 80.8605 13.208C80.3912 13.5707 80.1565 14.0613 80.1565 14.68C80.1565 15.2987 80.4978 15.8533 81.1805 16.344C81.8632 16.8133 82.6845 17.2293 83.6445 17.592C84.6258 17.9547 85.5965 18.36 86.5565 18.808C87.5378 19.2347 88.3698 19.8747 89.0525 20.728C89.7352 21.5813 90.0765 22.616 90.0765 23.832C90.0765 25.8373 89.2765 27.5973 87.6765 29.112C86.0765 30.6053 84.2098 31.352 82.0765 31.352C80.4765 31.352 79.0578 30.968 77.8205 30.2C76.7325 29.5387 75.9645 28.952 75.5165 28.44L75.2285 28.088L77.7245 24.632ZM98.0103 8.76L97.6583 19.192L105.818 8.824L109.082 11L101.722 19.544L109.53 28.792L105.434 31.352L97.6263 20.312L97.5623 22.68L97.9463 31H93.4663L93.8503 23.224L93.4663 9.56L98.0103 8.76ZM120.926 8.6C123.444 8.6 125.513 9.56 127.134 11.48C128.777 13.4 129.598 15.8427 129.598 18.808C129.598 22.5627 128.628 25.592 126.686 27.896C124.745 30.2 122.196 31.352 119.038 31.352C116.585 31.352 114.526 30.3707 112.862 28.408C111.198 26.424 110.366 23.9813 110.366 21.08C110.366 17.4533 111.358 14.4667 113.342 12.12C115.326 9.77333 117.854 8.6 120.926 8.6ZM125.246 20.6C125.246 15.2027 123.476 12.504 119.934 12.504C118.313 12.504 117.033 13.112 116.094 14.328C115.177 15.5227 114.718 17.3253 114.718 19.736C114.718 22.1253 115.209 24.0987 116.19 25.656C117.193 27.192 118.505 27.96 120.126 27.96C121.769 27.96 123.028 27.3093 123.902 26.008C124.798 24.6853 125.246 22.8827 125.246 20.6ZM133.123 31L133.507 23.224L133.123 9.56L137.667 8.76L137.219 22.68L137.443 27.864L144.003 27.352L143.651 31H133.123ZM146.748 31L147.132 23.224L146.748 8.92H158.748L158.396 12.344H151.196L151.004 18.008H157.404L157.052 21.4H150.876L150.844 22.68L151.068 27.608H158.812L158.46 31H146.748ZM179.426 8.856L179.01 22.68L179.362 30.296L175.586 31.096L166.05 15.672V22.68L166.498 31H162.498L162.882 23.224L162.498 9.016L166.338 8.824L175.842 24.472L175.522 9.336L179.426 8.856ZM191.12 31.352C189.605 31.352 187.419 31.2347 184.56 31L184.944 23.224L184.56 8.92H193.104C195.984 8.92 198.235 9.784 199.856 11.512C201.477 13.24 202.288 15.64 202.288 18.712C202.288 22.5947 201.285 25.6773 199.28 27.96C197.275 30.2213 194.555 31.352 191.12 31.352ZM191.952 12.376C190.544 12.376 189.552 12.3867 188.976 12.408L188.656 22.68L188.88 27.864C190.672 27.992 191.877 28.056 192.496 28.056C194.181 28.056 195.504 27.3733 196.464 26.008C197.445 24.6427 197.936 22.6587 197.936 20.056C197.936 17.4533 197.456 15.5227 196.496 14.264C195.557 13.0053 194.043 12.376 191.952 12.376ZM210.354 8.76L210.002 19.192L218.162 8.824L221.426 11L214.066 19.544L221.874 28.792L217.778 31.352L209.97 20.312L209.906 22.68L210.29 31H205.81L206.194 23.224L205.81 9.56L210.354 8.76Z" fill="#FF5700"/>
<path d="M9.90548 15.035C9.90548 15.035 8.66744 17.8115 8.66744 19.1998C8.66744 20.5881 8.25478 22.6706 6.60405 23.0176C4.81492 23.1128 4.52567 22.1268 4.54064 21.2823C4.5556 20.4378 4.54061 19.1998 5.77868 17.1174C7.01674 15.035 10.764 12.0895 9.4928 11.9113C7.01674 11.5643 5.77868 13.2996 5.77868 13.2996L2.88992 17.1174C1.6519 18.7536 0.196815 17.8986 0.00115593 16.0762C-0.0439144 14.8215 1.2392 13.2996 2.06456 12.9525C4.12796 11.5643 10.3182 9.44997 10.7309 8.4406C11.1436 7.43124 4.95334 8.78768 2.88992 9.48182C0.826498 10.176 0.160452 8.72274 2.06456 7.39939C3.96866 6.07603 5.49652 5.95383 7.84208 6.0111C10.2369 6.06958 13.6196 7.74646 13.6196 7.74646C13.6196 7.74646 16.921 6.0111 18.9844 6.0111C21.0478 6.0111 21.6639 6.05026 23.1112 6.70524C25.1009 7.60569 25.2342 9.1791 23.5239 9.48182C21.8137 9.78454 20.6352 8.78768 19.3971 8.4406C18.1591 8.09353 15.683 8.09353 16.0957 8.78768C16.5084 9.48182 21.8732 11.2172 21.8732 11.2172C24.762 12.2584 26 13.2996 26 15.7291C25.7909 17.79 24.3493 18.1586 23.1112 16.7703C21.8732 15.382 21.4028 14.6232 20.2225 13.2996C18.9845 11.9113 18.3071 10.8841 16.9211 11.2172C14.0323 11.9113 21.2186 16.19 21.4605 20.241C21.7024 24.2921 19.2447 23.3381 18.1591 20.5881C17.0735 17.8381 16.0957 13.6467 14.8577 13.6467C13.6196 13.6467 14.0323 15.035 14.0323 15.035L14.8576 28.2237C14.8576 28.2237 17.2151 29.7731 18.9844 30.3061C22.0817 31.2391 3.91887 31.2234 7.01672 30.3061C8.7895 29.7812 11.1435 28.2237 11.1435 28.2237L11.9689 15.382C12.1945 12.2176 10.2055 14.2389 9.90548 15.035Z" fill="#FF5700"/>
</svg>
