<svg width="234" height="141" viewBox="0 0 234 141" fill="none" xmlns="http://www.w3.org/2000/svg">
<path d="M6 134.961C31.6535 123.11 49.4277 124.689 75.3338 132.87M6 79.194C30.9732 82.3389 53.0113 90.2791 79.4938 113.351M40.6669 34.5805C61.6026 50.0787 72.7406 63.1009 91.2805 95.9241M81.5738 6C97.8953 38.2278 105.281 54.3349 107.921 86.8619M152.294 6C135.273 35.9575 130.377 53.7898 127.334 86.8619M198.748 34.5805C171.686 51.9623 160.368 65.4335 146.748 95.9241M227.868 86.8619C198.748 84.0736 180.694 90.0205 157.841 113.351M227.868 134.961C200.408 126.759 184.604 126.763 157.841 134.961" stroke="#FF5700" stroke-width="11" stroke-linecap="round"/>
<path d="M140.508 135L93.3607 135C93.4973 114.217 94.4268 108.172 114.854 107.266C139.909 106.694 140.706 112.231 140.508 135Z" fill="#FF5700" stroke="#FF5700" stroke-width="11" stroke-linecap="round" stroke-linejoin="round"/>
</svg>
