<svg width="54" height="33" viewBox="0 0 54 33" fill="none" xmlns="http://www.w3.org/2000/svg">
<path d="M2 31.0625C7.78125 28.3919 11.7868 28.7476 17.625 30.5912M2 18.4949C7.62793 19.2037 12.5944 20.9931 18.5625 26.1926M9.8125 8.44088C14.5306 11.9335 17.0406 14.8682 21.2188 22.2652M19.0312 2C22.7094 9.26283 24.3738 12.8927 24.9688 20.223M34.9688 2C31.1329 8.75119 30.0295 12.7699 29.3438 20.223M45.4375 8.44088C39.3389 12.358 36.7882 15.3939 33.7188 22.2652M52 20.223C45.4375 19.5946 41.3689 20.9348 36.2188 26.1926M52 31.0625C45.8116 29.2141 42.25 29.2151 36.2188 31.0625" stroke="#FF5700" stroke-width="3" stroke-linecap="round"/>
<path d="M32.3125 31.0713L21.6875 31.0713C21.7183 26.3877 21.9278 25.0256 26.5312 24.8213C32.1777 24.6923 32.3573 25.9401 32.3125 31.0713Z" fill="#FF5700" stroke="#FF5700" stroke-width="3" stroke-linecap="round" stroke-linejoin="round"/>
</svg>
