<svg width="30" height="31" viewBox="0 0 30 31" fill="none" xmlns="http://www.w3.org/2000/svg">
<path d="M12 21.5051L19.785 15.0765L12 8.64797V21.5051ZM29.34 4.72654C29.535 5.73368 29.67 7.08368 29.76 8.79797C29.865 10.5123 29.91 11.9908 29.91 13.2765L30 15.0765C30 19.7694 29.76 23.2194 29.34 25.4265C28.965 27.3551 28.095 28.598 26.745 29.1337C26.04 29.4123 24.75 29.6051 22.77 29.7337C20.82 29.8837 19.035 29.948 17.385 29.948L15 30.0765C8.715 30.0765 4.8 29.7337 3.255 29.1337C1.905 28.598 1.035 27.3551 0.66 25.4265C0.465 24.4194 0.33 23.0694 0.24 21.3551C0.135 19.6408 0.0899999 18.1623 0.0899999 16.8765L0 15.0765C0 10.3837 0.24 6.93368 0.66 4.72654C1.035 2.79797 1.905 1.55511 3.255 1.0194C3.96 0.740824 5.25 0.547966 7.23 0.419395C9.18 0.269395 10.965 0.205109 12.615 0.205109L15 0.0765381C21.285 0.0765381 25.2 0.419395 26.745 1.0194C28.095 1.55511 28.965 2.79797 29.34 4.72654Z" fill="#FF5700"/>
</svg>
